<svg width="130" height="48" viewBox="0 0 130 48" fill="none" xmlns="http://www.w3.org/2000/svg">
<g clip-path="url(#clip0_3320_954)">
<mask id="mask0_3320_954" style="mask-type:luminance" maskUnits="userSpaceOnUse" x="0" y="0" width="49" height="48">
<path d="M48.0376 0H0.200012V48H48.0376V0Z" fill="white"/>
</mask>
<g mask="url(#mask0_3320_954)">
<path d="M0.748142 28.1C3.01046 23.83 11.9302 24.16 20.6805 28.82C29.4308 33.49 34.6829 40.73 32.4306 45C30.1683 49.27 21.2485 48.94 12.4983 44.28C3.74796 39.61 -1.51418 32.37 0.748142 28.1ZM39.3172 5.94999C44.1309 5.94999 48.0376 14.01 48.0376 23.95C48.0376 33.89 44.1309 41.95 39.3172 41.95C34.5035 41.95 30.5968 33.89 30.5968 23.95C30.5968 14.01 34.5035 5.94999 39.3172 5.94999ZM12.4684 3.71999C21.2186 -0.950009 30.1384 -1.27001 32.4007 2.99999C34.663 7.26999 29.4009 14.51 20.6506 19.18C11.9003 23.85 2.98056 24.17 0.718243 19.9C-1.54408 15.63 3.71806 8.38999 12.4684 3.71999Z" fill="#002536"/>
</g>
<mask id="mask1_3320_954" style="mask-type:luminance" maskUnits="userSpaceOnUse" x="57" y="5" width="73" height="37">
<path d="M129.8 5.95001H57.6051V41.95H129.8V5.95001Z" fill="white"/>
</mask>
<g mask="url(#mask1_3320_954)">
<path d="M107.795 41.95H102.543V5.95001H114.921C122.525 5.95001 128.474 9.44001 128.474 16.86C128.474 24.28 125.365 25.67 120.332 26.75C122.236 27.88 124.388 30.04 126.382 34.36L129.8 41.96H123.91L121.239 35.89C119.096 31.64 117.332 28.75 112.299 28.75H107.855L107.805 41.96L107.795 41.95ZM114.98 10.9H107.914L107.864 24.05H114.881C119.485 24.05 122.864 21.69 122.864 17.34C122.864 12.99 119.326 10.9 114.99 10.9H114.98Z" fill="#002536"/>
<path d="M93.0049 5.95001H98.4663V41.95H93.0049V5.95001Z" fill="#002536"/>
<path d="M57.6051 41.95L67.2523 10.86C68.3088 7.53001 70.89 5.95001 73.84 5.95001C76.79 5.95001 79.431 7.53001 80.4774 10.86L90.1247 41.95H84.6433L81.5937 31.81H66.0664L63.0367 41.95H57.6051ZM71.8866 12.44L67.5613 26.95H80.1685L75.893 12.44C75.5243 11.33 74.8964 10.8 73.8898 10.8C72.8832 10.8 72.2055 11.33 71.8866 12.44Z" fill="#002536"/>
</g>
</g>
<defs>
<clipPath id="clip0_3320_954">
<rect width="129.6" height="48" fill="white" transform="translate(0.200012)"/>
</clipPath>
</defs>
</svg>
