<svg width="163" height="61" viewBox="0 0 163 61" fill="none" xmlns="http://www.w3.org/2000/svg">
<g clip-path="url(#clip0_2410_5324)">
<mask id="mask0_2410_5324" style="mask-type:luminance" maskUnits="userSpaceOnUse" x="0" y="0" width="61" height="61">
<path d="M60.047 0.625H0.25V60.625H60.047V0.625Z" fill="white"/>
</mask>
<g mask="url(#mask0_2410_5324)">
<path d="M0.935513 35.7499C3.76341 30.4124 14.9131 30.8249 25.8509 36.6499C36.7888 42.4874 43.354 51.5374 40.5386 56.8749C37.7107 62.2124 26.561 61.7999 15.6231 55.9749C4.68528 50.1374 -1.89239 41.0874 0.935513 35.7499ZM49.1468 8.06241C55.1639 8.06241 60.0473 18.1374 60.0473 30.5624C60.0473 42.9874 55.1639 53.0624 49.1468 53.0624C43.1298 53.0624 38.2463 42.9874 38.2463 30.5624C38.2463 18.1374 43.1298 8.06241 49.1468 8.06241ZM15.5858 5.27491C26.5236 -0.562587 37.6733 -0.962587 40.5012 4.37491C43.3291 9.71241 36.7514 18.7624 25.8135 24.5999C14.8757 30.4374 3.72604 30.8374 0.89814 25.4999C-1.92976 20.1624 4.64791 11.1124 15.5858 5.27491Z" fill="black"/>
</g>
<mask id="mask1_2410_5324" style="mask-type:luminance" maskUnits="userSpaceOnUse" x="72" y="8" width="91" height="46">
<path d="M162.25 8.0625H72.0068V53.0625H162.25V8.0625Z" fill="white"/>
</mask>
<g mask="url(#mask1_2410_5324)">
<path d="M134.744 53.0625H128.179V8.0625H143.651C153.156 8.0625 160.594 12.425 160.594 21.7C160.594 30.975 156.707 32.7125 150.416 34.0625C152.795 35.475 155.486 38.175 157.978 43.575L162.251 53.075H154.888L151.549 45.4875C148.871 40.175 146.666 36.5625 140.375 36.5625H134.819L134.756 53.075L134.744 53.0625ZM143.726 14.25H134.893L134.831 30.6875H143.601C149.357 30.6875 153.58 27.7375 153.58 22.3C153.58 16.8625 149.157 14.25 143.738 14.25H143.726Z" fill="black"/>
<path d="M116.257 8.0625H123.084V53.0625H116.257V8.0625Z" fill="black"/>
<path d="M72.0068 53.0625L84.0659 14.2C85.3864 10.0375 88.613 8.0625 92.3004 8.0625C95.9879 8.0625 99.2892 10.0375 100.597 14.2L112.656 53.0625H105.805L101.993 40.3875H82.5834L78.7963 53.0625H72.0068ZM89.8587 16.175L84.4521 34.3125H100.211L94.8667 16.175C94.4058 14.7875 93.621 14.125 92.3627 14.125C91.1045 14.125 90.2574 14.7875 89.8587 16.175Z" fill="black"/>
</g>
</g>
<defs>
<clipPath id="clip0_2410_5324">
<rect width="162" height="60" fill="white" transform="translate(0.25 0.625)"/>
</clipPath>
</defs>
</svg>
