<svg width="33" height="13" viewBox="0 0 33 13" fill="none" xmlns="http://www.w3.org/2000/svg">
<g clip-path="url(#clip0_25003_348)">
<mask id="mask0_25003_348" style="mask-type:luminance" maskUnits="userSpaceOnUse" x="0" y="0" width="13" height="13">
<path d="M12.1809 0.5H0V12.5H12.1809V0.5Z" fill="white"/>
</mask>
<g mask="url(#mask0_25003_348)">
<path d="M0.139524 7.52498C0.715577 6.45748 2.9868 6.53998 5.21489 7.70498C7.44297 8.87248 8.78033 10.6825 8.20681 11.75C7.63076 12.8175 5.35953 12.735 3.13145 11.57C0.903366 10.4025 -0.43653 8.59248 0.139524 7.52498ZM9.96035 1.98748C11.186 1.98748 12.1808 4.00248 12.1808 6.48748C12.1808 8.97248 11.186 10.9875 9.96035 10.9875C8.73465 10.9875 7.73988 8.97248 7.73988 6.48748C7.73988 4.00248 8.73465 1.98748 9.96035 1.98748ZM3.12384 1.42998C5.35192 0.262483 7.62314 0.182483 8.1992 1.24998C8.77525 2.31748 7.43536 4.12748 5.20727 5.29498C2.97919 6.46248 0.707964 6.54248 0.131911 5.47498C-0.444143 4.40748 0.895753 2.59748 3.12384 1.42998Z" fill="currentColor"/>
</g>
<mask id="mask1_25003_348" style="mask-type:luminance" maskUnits="userSpaceOnUse" x="14" y="1" width="19" height="10">
<path d="M32.9999 1.9873H14.6169V10.9873H32.9999V1.9873Z" fill="white"/>
</mask>
<g mask="url(#mask1_25003_348)">
<path d="M27.3967 10.9873H26.0593V1.9873H29.2111C31.1474 1.9873 32.6624 2.8598 32.6624 4.7148C32.6624 6.5698 31.8706 6.9173 30.5891 7.1873C31.0738 7.4698 31.6219 8.0098 32.1295 9.0898L32.9999 10.9898H31.5001L30.82 9.4723C30.2744 8.4098 29.8252 7.6873 28.5437 7.6873H27.4119L27.3992 10.9898L27.3967 10.9873ZM29.2264 3.2248H27.4271L27.4144 6.5123H29.201C30.3734 6.5123 31.2337 5.9223 31.2337 4.8348C31.2337 3.7473 30.3328 3.2248 29.2289 3.2248H29.2264Z" fill="currentColor"/>
<path d="M23.6309 1.9873H25.0215V10.9873H23.6309V1.9873Z" fill="currentColor"/>
<path d="M14.6169 10.9873L17.0734 3.2148C17.3424 2.3823 17.9997 1.9873 18.7508 1.9873C19.502 1.9873 20.1745 2.3823 20.4409 3.2148L22.8974 10.9873H21.5017L20.7251 8.4523H16.7714L16 10.9873H14.6169ZM18.2534 3.6098L17.1521 7.2373H20.3623L19.2736 3.6098C19.1797 3.3323 19.0198 3.1998 18.7635 3.1998C18.5072 3.1998 18.3346 3.3323 18.2534 3.6098Z" fill="currentColor"/>
</g>
</g>
<defs>
<clipPath id="clip0_25003_348">
<rect width="33" height="12" fill="white" transform="translate(0 0.5)"/>
</clipPath>
</defs>
</svg>
