<svg width="49" height="48" viewBox="0 0 49 48" fill="none" xmlns="http://www.w3.org/2000/svg">
<rect x="0.5" width="48" height="48" rx="12" fill="white"/>
<g clip-path="url(#clip0_22884_23667)">
<path d="M11.7991 26.2212C13.028 23.91 17.8786 24.0858 22.6331 26.6138C27.3874 29.1417 30.2457 33.0643 29.0169 35.3755C27.788 37.6867 22.9374 37.5109 18.1829 34.9829C13.4287 32.455 10.5707 28.5324 11.7991 26.2212ZM32.7601 14.2231C35.3776 14.2231 37.4993 18.5884 37.4993 23.9731C37.4993 29.3579 35.3777 33.7231 32.7601 33.7231C30.1425 33.7231 28.0208 29.3579 28.0208 23.9731C28.0209 18.5885 30.1425 14.2232 32.7601 14.2231ZM18.1683 13.0171C22.9225 10.4892 27.7731 10.3136 29.0023 12.6245C30.2311 14.9357 27.3729 18.8592 22.6185 21.3872C17.8644 23.9148 13.0147 24.0905 11.7855 21.7798C10.5566 19.4686 13.4139 15.5451 18.1683 13.0171Z" fill="black"/>
</g>
<defs>
<clipPath id="clip0_22884_23667">
<rect width="26" height="26" fill="white" transform="translate(11.5 11)"/>
</clipPath>
</defs>
</svg>
