<svg width="151" height="32" viewBox="0 0 151 32" fill="none" xmlns="http://www.w3.org/2000/svg">
<g clip-path="url(#clip0_22884_21290)">
<mask id="mask0_22884_21290" style="mask-type:luminance" maskUnits="userSpaceOnUse" x="0" y="0" width="28" height="28">
<path d="M27.5095 0H0V27.6029H27.5095V0Z" fill="white"/>
</mask>
<g mask="url(#mask0_22884_21290)">
<path d="M0.315179 16.1589C1.61615 13.7034 6.74552 13.8932 11.7775 16.573C16.8094 19.2585 19.8297 23.422 18.5345 25.8775C17.2335 28.333 12.1041 28.1432 7.07219 25.4634C2.04025 22.7779 -0.98579 18.6145 0.315179 16.1589ZM22.4947 3.42137C25.2628 3.42137 27.5094 8.05635 27.5094 13.7724C27.5094 19.4885 25.2628 24.1235 22.4947 24.1235C19.7266 24.1235 17.4799 19.4885 17.4799 13.7724C17.4799 8.05635 19.7266 3.42137 22.4947 3.42137ZM7.055 2.13899C12.0869 -0.546542 17.2163 -0.730561 18.5173 1.72494C19.8183 4.18045 16.7922 8.34388 11.7603 11.0294C6.72832 13.7149 1.59895 13.899 0.297985 11.4435C-1.00298 8.98795 2.02306 4.82452 7.055 2.13899Z" fill="white"/>
</g>
<mask id="mask1_22884_21290" style="mask-type:luminance" maskUnits="userSpaceOnUse" x="33" y="3" width="42" height="22">
<path d="M74.5277 3.42139H33.0114V24.1235H74.5277V3.42139Z" fill="white"/>
</mask>
<g mask="url(#mask1_22884_21290)">
<path d="M61.8733 24.1235H58.853V3.42139H65.9711C70.344 3.42139 73.7655 5.42835 73.7655 9.69529C73.7655 13.9622 71.9773 14.7616 69.0831 15.3826C70.1778 16.0325 71.4157 17.2746 72.5619 19.7588L74.5277 24.1293H71.1406L69.6046 20.6387C68.3725 18.1947 67.358 16.5328 64.4638 16.5328H61.9077L61.8791 24.1293L61.8733 24.1235ZM66.0055 6.26793H61.9421L61.9135 13.83H65.9482C68.596 13.83 70.5388 12.4728 70.5388 9.97132C70.5388 7.46981 68.5043 6.26793 66.0112 6.26793H66.0055Z" fill="white"/>
<path d="M53.3684 3.42139H56.5091V24.1235H53.3684V3.42139Z" fill="white"/>
<path d="M33.0114 24.1235L38.5591 6.24493C39.1666 4.32998 40.651 3.42139 42.3474 3.42139C44.0438 3.42139 45.5626 4.32998 46.1643 6.24493L51.7121 24.1235H48.5599L46.8062 18.2924H37.8771L36.1348 24.1235H33.0114ZM41.2241 7.15353L38.7368 15.4976H45.9867L43.528 7.15353C43.3159 6.51521 42.9549 6.21043 42.376 6.21043C41.7972 6.21043 41.4075 6.51521 41.2241 7.15353Z" fill="white"/>
</g>
</g>
<path d="M136.532 11.3119C137.058 10.2029 137.887 9.28542 139.019 8.55952C140.172 7.81346 141.537 7.44043 143.114 7.44043C144.61 7.44043 145.955 7.7933 147.148 8.49903C148.361 9.1846 149.302 10.1726 149.969 11.4631C150.656 12.7334 151 14.2155 151 15.9092C151 17.603 150.656 19.0951 149.969 20.3856C149.302 21.6761 148.361 22.6742 147.148 23.3799C145.955 24.0857 144.61 24.4385 143.114 24.4385C141.557 24.4385 140.202 24.0756 139.05 23.3497C137.897 22.6036 137.058 21.6761 136.532 20.5671V32H134.439V7.6824H136.532V11.3119ZM148.847 15.9092C148.847 14.5381 148.574 13.3585 148.028 12.3705C147.502 11.3623 146.774 10.5961 145.844 10.0718C144.914 9.54755 143.862 9.28542 142.689 9.28542C141.557 9.28542 140.516 9.55763 139.565 10.1021C138.635 10.6465 137.897 11.4228 137.351 12.431C136.805 13.4392 136.532 14.6087 136.532 15.9395C136.532 17.2703 136.805 18.4398 137.351 19.448C137.897 20.4562 138.635 21.2325 139.565 21.7769C140.516 22.3213 141.557 22.5936 142.689 22.5936C143.862 22.5936 144.914 22.3314 145.844 21.8072C146.774 21.2627 147.502 20.4864 148.028 19.4782C148.574 18.4499 148.847 17.2602 148.847 15.9092Z" fill="white"/>
<path d="M124.048 24.4385C122.491 24.4385 121.086 24.0958 119.832 23.4102C118.598 22.7045 117.618 21.7164 116.89 20.4461C116.182 19.1556 115.828 17.6534 115.828 15.9395C115.828 14.2256 116.192 12.7334 116.92 11.4631C117.648 10.1726 118.639 9.1846 119.892 8.49903C121.146 7.7933 122.552 7.44043 124.109 7.44043C125.666 7.44043 127.071 7.7933 128.325 8.49903C129.598 9.1846 130.589 10.1726 131.297 11.4631C132.025 12.7334 132.389 14.2256 132.389 15.9395C132.389 17.6332 132.025 19.1254 131.297 20.4159C130.569 21.7063 129.568 22.7045 128.294 23.4102C127.02 24.0958 125.605 24.4385 124.048 24.4385ZM124.048 22.5935C125.14 22.5935 126.151 22.3516 127.081 21.8677C128.011 21.3636 128.759 20.6175 129.325 19.6295C129.912 18.6213 130.205 17.3913 130.205 15.9395C130.205 14.4877 129.922 13.2678 129.356 12.2797C128.79 11.2716 128.041 10.5255 127.111 10.0416C126.181 9.53747 125.17 9.28542 124.078 9.28542C122.986 9.28542 121.975 9.53747 121.045 10.0416C120.115 10.5255 119.367 11.2716 118.801 12.2797C118.255 13.2678 117.982 14.4877 117.982 15.9395C117.982 17.3913 118.255 18.6213 118.801 19.6295C119.367 20.6175 120.105 21.3636 121.015 21.8677C121.945 22.3516 122.956 22.5935 124.048 22.5935Z" fill="white"/>
<path d="M107.311 7.38016C108.564 7.38016 109.687 7.64229 110.678 8.16655C111.689 8.69081 112.477 9.49736 113.043 10.5862C113.63 11.6549 113.923 12.9655 113.923 14.5182V24.1968H111.83V14.7601C111.83 12.9655 111.375 11.5944 110.465 10.6467C109.575 9.699 108.352 9.22515 106.795 9.22515C105.198 9.22515 103.924 9.72924 102.973 10.7374C102.023 11.7456 101.548 13.2277 101.548 15.1836V24.1968H99.4247V1.81494H101.548V10.4955C102.074 9.50744 102.842 8.74122 103.853 8.19679C104.884 7.65237 106.037 7.38016 107.311 7.38016Z" fill="white"/>
<path d="M90.3173 24.4085C88.9221 24.4085 87.6886 24.1665 86.6169 23.6826C85.5654 23.1986 84.7364 22.5231 84.1298 21.6561C83.5232 20.789 83.1996 19.8212 83.1592 18.7525H85.4037C85.5048 19.7809 85.9597 20.6882 86.7686 21.4746C87.5774 22.2408 88.7603 22.624 90.3173 22.624C91.753 22.624 92.8853 22.261 93.7144 21.5351C94.5637 20.789 94.9883 19.8514 94.9883 18.7223C94.9883 17.8149 94.7558 17.089 94.2907 16.5446C93.8256 15.98 93.2493 15.5666 92.5618 15.3045C91.8743 15.0222 90.9239 14.7197 89.7107 14.3971C88.2952 14.014 87.173 13.641 86.3439 13.278C85.5149 12.9151 84.8072 12.3505 84.2208 11.5843C83.6344 10.818 83.3412 9.77959 83.3412 8.46894C83.3412 7.3801 83.6243 6.41223 84.1904 5.56535C84.7566 4.69831 85.5553 4.02282 86.5866 3.53889C87.6178 3.05495 88.8008 2.81299 90.1353 2.81299C92.0967 2.81299 93.6739 3.29692 94.867 4.26478C96.0802 5.21248 96.7778 6.44248 96.9598 7.95477H94.6547C94.5131 7.08772 94.0379 6.32149 93.2291 5.65609C92.4203 4.97052 91.3283 4.62773 89.9533 4.62773C88.6794 4.62773 87.6178 4.97052 86.7686 5.65609C85.9193 6.32149 85.4947 7.23895 85.4947 8.40845C85.4947 9.29566 85.7272 10.0115 86.1923 10.5559C86.6574 11.1003 87.2337 11.5137 87.9212 11.796C88.6289 12.0783 89.5793 12.3807 90.7723 12.7033C92.1473 13.0865 93.2594 13.4696 94.1087 13.8527C94.958 14.2156 95.6758 14.7802 96.2622 15.5464C96.8486 16.3127 97.1418 17.341 97.1418 18.6315C97.1418 19.6195 96.8789 20.5572 96.3532 21.4444C95.8275 22.3316 95.049 23.0474 94.0177 23.5918C92.9864 24.1362 91.753 24.4085 90.3173 24.4085Z" fill="white"/>
<defs>
<clipPath id="clip0_22884_21290">
<rect width="74.5278" height="27.6029" fill="white"/>
</clipPath>
</defs>
</svg>
